<?xml version='1.0' encoding='iso-8859-1'?>
<!-- Uploaded to: SVG Repo, www.svgrepo.com, Generator: SVG Repo Mixer Tools -->
<svg fill="#000000" height="800px" width="800px" version="1.1" xmlns="http://www.w3.org/2000/svg" viewBox="0 0 340.633 340.633" xmlns:xlink="http://www.w3.org/1999/xlink" enable-background="new 0 0 340.633 340.633">
  <path d="m338.437,234.911l-76.399-76.399 .629-.314c3.707-1.85 5.213-6.353 3.364-10.06-1.85-3.706-6.351-5.211-10.06-3.364l-5.119,2.553-145.129-145.13c-2.388-2.389-6.079-2.886-9.014-1.214s-4.392,5.099-3.556,8.372l28.707,112.504-112.505-28.707c-3.275-0.837-6.701,0.62-8.372,3.557-1.671,2.936-1.174,6.626 1.214,9.015l145.13,145.131-2.553,5.118c-1.849,3.707-0.343,8.21 3.364,10.06 1.075,0.536 2.217,0.79 3.342,0.79 2.754,0 5.405-1.522 6.717-4.154l.314-.63 76.399,76.399c1.407,1.406 3.314,2.196 5.304,2.196 0.001,0 0.003,0 0.004,0 1.99-0.001 3.898-0.793 5.305-2.202l.459-.459c11.245-11.246 18.347-25.496 20.535-41.21 1.561-11.21 0.428-22.736-3.176-33.413 7.496,2.54 15.41,3.865 23.367,3.865 19.366,0 37.571-7.54 51.258-21.227l.465-.464c1.409-1.406 2.201-3.314 2.202-5.305s-0.789-3.9-2.196-5.308zm-101.738-80.524l-38.068,18.988c4.123-14.314 0.516-30.36-10.61-41.487-7.939-7.939-18.496-12.312-29.723-12.312-7.119,0-14.067,1.8-20.222,5.168l-23.631-92.612 122.254,122.255zm-22.587,53.923c0.086-0.052 0.171-0.105 0.257-0.156 0.594-0.35 1.203-0.672 1.821-0.975 0.129-0.063 0.258-0.127 0.388-0.188 0.578-0.272 1.166-0.52 1.761-0.75 0.194-0.075 0.389-0.147 0.584-0.218 0.538-0.194 1.082-0.369 1.631-0.529 0.276-0.08 0.554-0.154 0.832-0.224 0.479-0.123 0.961-0.233 1.446-0.33 0.364-0.072 0.73-0.133 1.096-0.189 0.215-0.034 0.431-0.059 0.647-0.088 0.638-0.083 1.278-0.149 1.919-0.187 0.068-0.004 0.136-0.005 0.204-0.009 7.419-0.38 14.948,2.26 20.544,7.856 9.387,9.386 10.518,24.521 2.63,35.205-0.16,0.216-0.304,0.438-0.438,0.665-0.026,0.044-0.047,0.092-0.072,0.137-0.104,0.186-0.203,0.374-0.29,0.566-0.019,0.041-0.033,0.083-0.051,0.125-0.045,0.02-0.091,0.036-0.135,0.056-0.175,0.08-0.346,0.172-0.517,0.266-0.059,0.033-0.121,0.06-0.18,0.094-0.225,0.133-0.447,0.277-0.662,0.436-0.642,0.474-1.302,0.911-1.974,1.32-0.128,0.078-0.261,0.146-0.39,0.222-0.575,0.336-1.155,0.659-1.748,0.949-0.085,0.042-0.171,0.079-0.256,0.12-9.422,4.488-20.879,3.168-29.008-3.575-0.006-0.005-0.011-0.01-0.017-0.014-0.625-0.519-1.23-1.07-1.813-1.653-9.879-9.878-10.547-25.788-1.629-36.475 0.471-0.396 0.947-0.784 1.441-1.145 0.052-0.038 0.102-0.078 0.154-0.115 0.594-0.425 1.204-0.821 1.825-1.197zm-73.246-67.369c4.875-4.099 11.04-6.365 17.432-6.365 7.221,0 14.01,2.812 19.117,7.918 9.878,9.879 10.546,25.789 1.628,36.475-4.874,4.099-11.039,6.365-17.432,6.365-7.22,0.001-14.009-2.812-19.116-7.919-9.879-9.878-10.546-25.787-1.629-36.474zm-108.733-26.496l92.613,23.632c-8.758,16.044-6.245,36.559 7.142,49.946 7.94,7.939 18.496,12.313 29.724,12.312 4.01,0 7.962-0.581 11.752-1.681l-18.977,38.046-122.254-122.255zm207.786,207.787l-74.348-74.348 23.863-47.842 6.136,6.136c-0.1,0.164-0.191,0.332-0.289,0.498-0.137,0.232-0.274,0.465-0.406,0.699-0.184,0.325-0.36,0.653-0.535,0.982-0.121,0.228-0.244,0.456-0.36,0.686-0.179,0.353-0.348,0.709-0.516,1.065-0.099,0.21-0.202,0.419-0.297,0.63-0.196,0.435-0.38,0.874-0.561,1.314-0.056,0.136-0.117,0.27-0.171,0.407-0.23,0.577-0.446,1.158-0.649,1.743-0.056,0.161-0.104,0.324-0.158,0.486-0.142,0.427-0.282,0.854-0.411,1.284-0.067,0.224-0.126,0.449-0.189,0.674-0.104,0.371-0.207,0.743-0.301,1.116-0.061,0.245-0.117,0.49-0.174,0.736-0.083,0.357-0.163,0.715-0.237,1.073-0.052,0.254-0.1,0.508-0.148,0.762-0.066,0.356-0.128,0.712-0.184,1.069-0.041,0.255-0.08,0.51-0.116,0.765-0.051,0.362-0.095,0.724-0.137,1.087-0.029,0.25-0.058,0.5-0.083,0.75-0.037,0.381-0.065,0.762-0.091,1.144-0.016,0.231-0.036,0.462-0.048,0.693-0.023,0.438-0.035,0.877-0.045,1.315-0.004,0.175-0.013,0.35-0.015,0.525-0.006,0.61 0.001,1.22 0.021,1.83 0.005,0.146 0.017,0.291 0.023,0.437 0.02,0.467 0.044,0.933 0.08,1.399 0.017,0.227 0.043,0.454 0.064,0.681 0.036,0.383 0.072,0.767 0.118,1.149 0.03,0.25 0.066,0.5 0.101,0.75 0.05,0.359 0.102,0.718 0.161,1.076 0.042,0.257 0.089,0.514 0.136,0.77 0.064,0.351 0.133,0.702 0.206,1.051 0.054,0.256 0.109,0.512 0.168,0.767 0.08,0.351 0.167,0.7 0.256,1.049 0.064,0.25 0.127,0.5 0.196,0.749 0.099,0.36 0.207,0.717 0.315,1.074 0.071,0.233 0.139,0.467 0.214,0.7 0.128,0.396 0.267,0.79 0.408,1.183 0.068,0.189 0.13,0.38 0.2,0.568 0.215,0.575 0.441,1.147 0.682,1.715 0.044,0.105 0.095,0.208 0.14,0.312 0.202,0.465 0.409,0.928 0.628,1.386 0.097,0.204 0.203,0.405 0.304,0.607 0.177,0.356 0.355,0.711 0.543,1.063 0.12,0.224 0.246,0.446 0.37,0.668 0.182,0.326 0.365,0.65 0.556,0.972 0.135,0.228 0.275,0.454 0.415,0.68 0.193,0.312 0.391,0.622 0.593,0.93 0.148,0.224 0.297,0.448 0.449,0.67 0.209,0.306 0.424,0.608 0.643,0.909 0.157,0.216 0.313,0.431 0.474,0.645 0.232,0.307 0.471,0.609 0.713,0.911 0.159,0.199 0.316,0.4 0.479,0.596 0.272,0.327 0.554,0.649 0.837,0.969 0.144,0.163 0.283,0.329 0.43,0.49 0.436,0.478 0.882,0.949 1.343,1.41 7.937,7.938 18.49,12.309 29.716,12.309 5.99,0 11.794-1.237 17.141-3.624 6.931,18.667 3.642,39.985-8.653,55.7zm46.789-70.018c-6.906,0-13.77-1.248-20.199-3.646 0.031-0.071 0.059-0.143 0.089-0.214 0.076-0.174 0.146-0.349 0.219-0.524 0.154-0.368 0.304-0.736 0.447-1.107 0.075-0.195 0.147-0.39 0.219-0.585 0.133-0.36 0.26-0.722 0.383-1.085 0.066-0.195 0.132-0.391 0.195-0.587 0.123-0.383 0.238-0.767 0.35-1.153 0.05-0.173 0.103-0.345 0.151-0.519 0.136-0.494 0.262-0.99 0.38-1.488 0.015-0.064 0.033-0.127 0.048-0.191 0.132-0.569 0.25-1.14 0.358-1.713 0.026-0.138 0.047-0.277 0.072-0.416 0.076-0.429 0.148-0.859 0.212-1.29 0.028-0.193 0.052-0.387 0.078-0.58 0.05-0.381 0.097-0.763 0.137-1.145 0.022-0.207 0.041-0.413 0.06-0.619 0.034-0.378 0.062-0.757 0.086-1.135 0.013-0.201 0.026-0.401 0.036-0.602 0.02-0.411 0.032-0.822 0.04-1.233 0.003-0.164 0.01-0.327 0.011-0.491 0.01-1.152-0.027-2.303-0.109-3.451-0.012-0.17-0.03-0.339-0.044-0.508-0.034-0.403-0.071-0.805-0.116-1.207-0.023-0.204-0.05-0.407-0.075-0.611-0.047-0.371-0.098-0.742-0.155-1.111-0.032-0.209-0.065-0.417-0.1-0.625-0.063-0.374-0.133-0.746-0.206-1.118-0.038-0.195-0.075-0.39-0.116-0.585-0.089-0.422-0.187-0.842-0.289-1.261-0.034-0.14-0.064-0.28-0.099-0.419-0.142-0.559-0.294-1.115-0.459-1.668-0.029-0.098-0.063-0.195-0.092-0.292-0.138-0.451-0.282-0.901-0.435-1.348-0.063-0.184-0.131-0.366-0.196-0.549-0.129-0.361-0.261-0.721-0.401-1.079-0.079-0.202-0.16-0.403-0.242-0.604-0.138-0.34-0.281-0.679-0.429-1.016-0.087-0.2-0.175-0.4-0.266-0.598-0.159-0.349-0.325-0.695-0.494-1.04-0.087-0.177-0.171-0.355-0.26-0.531-0.215-0.424-0.44-0.845-0.671-1.263-0.05-0.091-0.097-0.184-0.148-0.275-0.285-0.507-0.581-1.009-0.888-1.505-0.084-0.136-0.174-0.27-0.26-0.406-0.227-0.358-0.457-0.714-0.696-1.066-0.12-0.177-0.244-0.351-0.367-0.526-0.216-0.308-0.435-0.615-0.66-0.918-0.136-0.183-0.273-0.364-0.412-0.545-0.227-0.296-0.46-0.589-0.696-0.88-0.141-0.174-0.281-0.348-0.426-0.519-0.259-0.308-0.526-0.612-0.795-0.914-0.129-0.145-0.254-0.291-0.385-0.434-0.403-0.44-0.815-0.874-1.24-1.299-0.487-0.487-0.983-0.959-1.488-1.417-7.748-7.04-17.696-10.895-28.236-10.895-3.432,0-6.818,0.442-10.101,1.253-0.012,0.003-0.023,0.006-0.035,0.009-1.676,0.416-3.323,0.93-4.932,1.547-0.378,0.144-0.754,0.292-1.128,0.447-0.35,0.146-0.699,0.291-1.045,0.446-0.704,0.314-1.402,0.644-2.091,0.999-0.157,0.081-0.31,0.17-0.466,0.253-0.614,0.326-1.222,0.67-1.823,1.029-0.107,0.064-0.219,0.119-0.326,0.184l-6.136-6.135 47.842-23.863 74.359,74.359c-10.095,7.958-22.484,12.278-35.539,12.278z"/>
</svg>